<svg xmlns="http://www.w3.org/2000/svg" width="1440" height="860" viewBox="0 0 1440 860">
  <defs><linearGradient id="bg" x2="1" y2="1"><stop stop-color="#0f2135"/><stop offset="1" stop-color="#0b1727"/></linearGradient><style>text{font-family:Inter,Segoe UI,sans-serif;fill:#e8f1fa}.muted{fill:#829bb2}.blue{fill:#36a9ed}.small{font-size:13px}.label{font-size:11px;font-weight:700;letter-spacing:1px}.nav{font-size:15px;font-weight:650}.title{font-size:25px;font-weight:750}.heading{font-size:17px;font-weight:700}</style></defs>
  <rect width="1440" height="860" fill="#06101c"/><rect width="250" height="860" fill="#091421"/><path d="M250 0v860" stroke="#1d334b"/><rect x="24" y="24" width="44" height="44" rx="12" fill="#168dd3"/><text x="46" y="52" text-anchor="middle" font-weight="800">UH</text><text x="82" y="43" font-size="17" font-weight="750">Access Control - HTTP</text><text x="82" y="61" class="muted small">UHPPOTE Console</text>
  <g class="nav"><text x="31" y="118" class="muted">Overview</text><text x="31" y="164" class="muted">Controllers</text><text x="31" y="209" class="muted">Relays</text><rect x="16" y="226" width="218" height="44" rx="9" fill="#116ba9"/><text x="31" y="254">Credentials</text><text x="198" y="254">27</text><text x="31" y="299" class="muted">Access Levels</text><text x="31" y="344" class="muted">Events</text><text x="31" y="389" class="muted">Audit log</text><text x="31" y="434" class="muted">Login Accounts</text><text x="31" y="479" class="muted">Help &amp; Tips</text></g><circle cx="30" cy="820" r="5" fill="#62d18b"/><text x="44" y="825" class="muted small">Controller connected</text>
  <rect x="250" width="1190" height="92" fill="#091524"/><path d="M250 92h1190" stroke="#1d334b"/><text x="280" y="35" class="blue label">UHPPOTE ACCESS CONTROL</text><text x="280" y="67" class="title">Credentials</text><g class="small" font-weight="700"><rect x="1110" y="27" width="76" height="38" rx="8" fill="#087ac6"/><text x="1148" y="51" text-anchor="middle">Help</text><rect x="1196" y="27" width="88" height="38" rx="8" fill="#12253b" stroke="#294662"/><text x="1240" y="51" text-anchor="middle">Refresh</text><rect x="1294" y="27" width="104" height="38" rx="8" fill="#12253b" stroke="#294662"/><text x="1346" y="51" text-anchor="middle">Sign out</text></g>
  <g transform="translate(280 122)"><rect width="1130" height="590" rx="12" fill="url(#bg)" stroke="#1d334b"/><text x="20" y="35" class="heading">Credential directory</text><text x="20" y="56" class="muted small">Grouped by management folder and person</text><rect x="840" y="20" width="270" height="42" rx="8" fill="#081421" stroke="#294662"/><text x="858" y="46" class="muted small">Search names, numbers or FC/CD…</text><path d="M0 78h1130" stroke="#1d334b"/>
  <g transform="translate(18 98)"><rect width="1094" height="205" rx="10" fill="#091522" stroke="#294662"/><rect width="1094" height="64" rx="10" fill="#10243a"/><text x="18" y="29" font-weight="750">Employees</text><text x="18" y="49" class="muted small">3 people · 5 credentials</text><rect x="978" y="18" width="92" height="27" rx="14" fill="#103426"/><text x="1024" y="37" text-anchor="middle" fill="#9cdcbc" class="label">ACTIVE</text><path d="M0 64h1094M0 133h1094" stroke="#1b3049"/><text x="38" y="94" font-weight="700">Alex Rivera</text><text x="38" y="117" class="muted small">Gate card · FC 150 / CD 184 · 24/7</text><rect x="996" y="79" width="74" height="36" rx="8" fill="#12253b" stroke="#294662"/><text x="1033" y="102" text-anchor="middle" class="small" font-weight="700">Edit</text><text x="38" y="164" font-weight="700">Jamie Rivera</text><text x="38" y="187" class="muted small">Card + RF remote · 2 credentials · Employees</text><rect x="996" y="148" width="74" height="36" rx="8" fill="#12253b" stroke="#294662"/><text x="1033" y="171" text-anchor="middle" class="small" font-weight="700">Edit</text></g>
  <g transform="translate(18 323)"><rect width="1094" height="136" rx="10" fill="#091522" stroke="#294662"/><rect width="1094" height="64" rx="10" fill="#10243a"/><text x="18" y="29" font-weight="750">Vendors</text><text x="18" y="49" class="muted small">2 people · 2 credentials</text><text x="38" y="96" font-weight="700">Taylor Electric</text><text x="38" y="119" class="muted small">Temporary card · expires Nov 30 · Weekdays</text><rect x="996" y="80" width="74" height="36" rx="8" fill="#12253b" stroke="#294662"/><text x="1033" y="103" text-anchor="middle" class="small" font-weight="700">Edit</text></g>
  <text x="18" y="500" class="muted small">Duplicate controller IDs are blocked. Exact full names consolidate under one person.</text></g><text x="280" y="740" class="muted small">Representative interface with sample data</text>
</svg>
