<svg xmlns="http://www.w3.org/2000/svg" width="390" height="844" viewBox="0 0 390 844">
  <defs><linearGradient id="bg" x2="1" y2="1"><stop stop-color="#0f2135"/><stop offset="1" stop-color="#0b1727"/></linearGradient><style>text{font-family:Inter,Segoe UI,sans-serif;fill:#e8f1fa}.muted{fill:#829bb2}.blue{fill:#36a9ed}.small{font-size:11px}.label{font-size:9px;font-weight:700;letter-spacing:.8px}.heading{font-size:15px;font-weight:700}</style></defs>
  <rect width="390" height="844" fill="#06101c"/><rect width="390" height="128" fill="#091524"/><path d="M0 128h390" stroke="#1d334b"/><rect x="13" y="15" width="42" height="42" rx="9" fill="#12253b" stroke="#294662"/><text x="34" y="43" text-anchor="middle" font-size="22">☰</text><text x="67" y="29" class="blue label">UHPPOTE ACCESS CONTROL</text><text x="67" y="52" font-size="21" font-weight="750">Overview</text><g font-size="11" font-weight="700"><rect x="12" y="75" width="114" height="40" rx="8" fill="#087ac6"/><text x="69" y="100" text-anchor="middle">Help</text><rect x="138" y="75" width="114" height="40" rx="8" fill="#12253b" stroke="#294662"/><text x="195" y="100" text-anchor="middle">Refresh</text><rect x="264" y="75" width="114" height="40" rx="8" fill="#12253b" stroke="#294662"/><text x="321" y="100" text-anchor="middle">Sign out</text></g>
  <g transform="translate(10 142)"><g fill="url(#bg)" stroke="#1d334b"><rect width="180" height="85" rx="10"/><rect x="190" width="180" height="85" rx="10"/><rect y="95" width="180" height="98" rx="10"/><rect x="190" y="95" width="180" height="98" rx="10"/></g><text x="14" y="24" class="muted label">CONTROLLERS</text><text x="14" y="61" font-size="25" font-weight="750">1</text><text x="204" y="24" class="muted label">RELAYS</text><text x="204" y="61" font-size="25" font-weight="750">4</text><text x="14" y="119" class="muted label">ACTIVE CREDENTIALS</text><text x="14" y="156" font-size="25" font-weight="750">27</text><text x="14" y="177" class="muted small">3 groups · 18 people</text><text x="204" y="119" class="muted label">EVENTS TODAY</text><text x="204" y="156" font-size="25" font-weight="750">42</text></g>
  <g transform="translate(10 352)"><rect width="370" height="430" rx="11" fill="url(#bg)" stroke="#1d334b"/><text x="14" y="30" class="heading">Live relay state</text><text x="14" y="50" class="muted small">Controller 125084970 · online</text><rect x="14" y="72" width="342" height="151" rx="9" fill="#0a1626" stroke="#294662"/><g class="small"><text x="28" y="100" class="muted label">RELAY</text><text x="142" y="100" font-weight="700">Vehicle Gate</text><text x="28" y="129" class="muted label">READERS</text><text x="142" y="129">Entry / Exit</text><text x="28" y="158" class="muted label">MODE</text><text x="142" y="158">Controlled</text><text x="28" y="187" class="muted label">STATUS</text><text x="142" y="187" fill="#9cdcbc" font-weight="700">CLOSED</text><rect x="252" y="172" width="88" height="36" rx="8" fill="#12253b" stroke="#294662"/><text x="296" y="195" text-anchor="middle" font-weight="700">Open</text></g><rect x="14" y="237" width="342" height="151" rx="9" fill="#0a1626" stroke="#294662"/><g class="small"><text x="28" y="265" class="muted label">RELAY</text><text x="142" y="265" font-weight="700">Pedestrian Gate</text><text x="28" y="294" class="muted label">READERS</text><text x="142" y="294">Keypad / Exit</text><text x="28" y="323" class="muted label">MODE</text><text x="142" y="323">Controlled</text><text x="28" y="352" class="muted label">STATUS</text><text x="142" y="352" fill="#9cdcbc" font-weight="700">CLOSED</text><rect x="252" y="337" width="88" height="36" rx="8" fill="#12253b" stroke="#294662"/><text x="296" y="360" text-anchor="middle" font-weight="700">Open</text></g><text x="14" y="414" class="muted small">Representative interface with sample data</text></g>
</svg>
